<?xml version="1.0" encoding="UTF-8"?>
<svg xmlns="http://www.w3.org/2000/svg" version="1.1" width="300" height="300" viewBox="0 0 300 300"><rect x="0" y="0" width="300" height="300" fill="#ffffff"/><g transform="scale(8.108)"><g transform="translate(0,0)"><path fill-rule="evenodd" d="M8 0L8 2L10 2L10 4L8 4L8 11L7 11L7 10L6 10L6 11L7 11L7 12L6 12L6 13L7 13L7 14L5 14L5 15L4 15L4 13L5 13L5 12L4 12L4 13L3 13L3 11L5 11L5 10L4 10L4 9L3 9L3 8L0 8L0 10L1 10L1 11L0 11L0 13L1 13L1 11L2 11L2 14L3 14L3 15L0 15L0 16L2 16L2 17L5 17L5 19L4 19L4 21L3 21L3 20L2 20L2 18L1 18L1 17L0 17L0 18L1 18L1 19L0 19L0 20L1 20L1 21L3 21L3 22L5 22L5 19L7 19L7 20L6 20L6 21L7 21L7 20L9 20L9 19L8 19L8 16L9 16L9 18L10 18L10 17L11 17L11 16L13 16L13 18L15 18L15 19L16 19L16 18L15 18L15 16L17 16L17 17L18 17L18 16L19 16L19 15L20 15L20 18L18 18L18 19L19 19L19 21L18 21L18 20L15 20L15 21L16 21L16 23L15 23L15 22L13 22L13 21L14 21L14 19L13 19L13 20L11 20L11 19L12 19L12 18L11 18L11 19L10 19L10 20L11 20L11 21L12 21L12 23L11 23L11 22L10 22L10 23L9 23L9 21L8 21L8 24L10 24L10 23L11 23L11 24L13 24L13 26L15 26L15 30L13 30L13 29L14 29L14 27L13 27L13 28L11 28L11 29L12 29L12 31L11 31L11 30L10 30L10 29L8 29L8 26L10 26L10 27L12 27L12 26L10 26L10 25L7 25L7 24L6 24L6 23L7 23L7 22L6 22L6 23L5 23L5 24L3 24L3 25L5 25L5 27L7 27L7 28L4 28L4 29L8 29L8 30L10 30L10 32L9 32L9 31L8 31L8 32L9 32L9 34L8 34L8 37L10 37L10 36L11 36L11 37L14 37L14 35L13 35L13 36L11 36L11 35L12 35L12 34L11 34L11 35L10 35L10 33L11 33L11 32L13 32L13 34L15 34L15 36L16 36L16 37L17 37L17 36L16 36L16 35L18 35L18 32L19 32L19 33L20 33L20 34L19 34L19 35L20 35L20 36L19 36L19 37L20 37L20 36L21 36L21 35L22 35L22 37L24 37L24 36L25 36L25 37L26 37L26 36L25 36L25 35L26 35L26 32L25 32L25 31L27 31L27 34L28 34L28 33L31 33L31 34L32 34L32 35L31 35L31 36L30 36L30 35L29 35L29 36L28 36L28 37L29 37L29 36L30 36L30 37L31 37L31 36L32 36L32 35L33 35L33 37L35 37L35 36L34 36L34 35L35 35L35 34L36 34L36 35L37 35L37 34L36 34L36 33L37 33L37 32L34 32L34 31L35 31L35 29L37 29L37 28L36 28L36 27L37 27L37 26L36 26L36 25L37 25L37 24L36 24L36 23L37 23L37 22L36 22L36 21L37 21L37 16L36 16L36 15L37 15L37 14L36 14L36 11L37 11L37 10L36 10L36 9L37 9L37 8L35 8L35 9L34 9L34 10L32 10L32 9L33 9L33 8L29 8L29 9L28 9L28 8L27 8L27 9L26 9L26 8L25 8L25 6L24 6L24 7L23 7L23 6L22 6L22 2L23 2L23 3L24 3L24 2L23 2L23 1L24 1L24 0L21 0L21 1L20 1L20 0L18 0L18 2L17 2L17 0L15 0L15 1L13 1L13 0L11 0L11 1L9 1L9 0ZM25 0L25 1L28 1L28 2L27 2L27 3L26 3L26 2L25 2L25 4L27 4L27 3L28 3L28 7L29 7L29 1L28 1L28 0ZM11 1L11 2L12 2L12 1ZM15 1L15 2L16 2L16 1ZM19 1L19 5L18 5L18 4L17 4L17 3L15 3L15 4L16 4L16 6L15 6L15 5L13 5L13 4L14 4L14 2L13 2L13 3L11 3L11 4L12 4L12 6L11 6L11 5L9 5L9 8L10 8L10 6L11 6L11 7L12 7L12 6L13 6L13 8L11 8L11 10L9 10L9 11L11 11L11 12L13 12L13 11L14 11L14 13L13 13L13 14L15 14L15 15L16 15L16 13L15 13L15 12L17 12L17 16L18 16L18 15L19 15L19 14L20 14L20 15L21 15L21 16L22 16L22 17L21 17L21 18L20 18L20 19L21 19L21 22L20 22L20 21L19 21L19 22L20 22L20 23L19 23L19 24L18 24L18 23L17 23L17 24L18 24L18 25L16 25L16 24L15 24L15 26L16 26L16 27L17 27L17 28L16 28L16 29L17 29L17 30L16 30L16 31L15 31L15 32L18 32L18 31L17 31L17 30L18 30L18 27L17 27L17 26L18 26L18 25L19 25L19 26L20 26L20 27L21 27L21 29L22 29L22 30L20 30L20 31L21 31L21 32L20 32L20 33L21 33L21 34L20 34L20 35L21 35L21 34L24 34L24 33L23 33L23 32L24 32L24 31L25 31L25 30L24 30L24 31L22 31L22 30L23 30L23 29L27 29L27 30L28 30L28 29L27 29L27 28L28 28L28 27L27 27L27 28L26 28L26 27L25 27L25 26L24 26L24 23L23 23L23 22L24 22L24 21L25 21L25 22L26 22L26 23L25 23L25 24L26 24L26 26L28 26L28 25L27 25L27 24L28 24L28 23L29 23L29 27L30 27L30 23L31 23L31 24L32 24L32 22L33 22L33 23L34 23L34 24L33 24L33 25L32 25L32 26L33 26L33 27L32 27L32 28L33 28L33 27L34 27L34 28L35 28L35 27L36 27L36 26L35 26L35 25L34 25L34 24L35 24L35 23L36 23L36 22L35 22L35 23L34 23L34 20L35 20L35 21L36 21L36 17L35 17L35 15L36 15L36 14L35 14L35 13L34 13L34 12L35 12L35 11L36 11L36 10L35 10L35 11L34 11L34 12L33 12L33 11L32 11L32 12L33 12L33 13L32 13L32 15L33 15L33 14L34 14L34 17L32 17L32 19L31 19L31 17L30 17L30 15L29 15L29 14L28 14L28 15L27 15L27 16L26 16L26 15L25 15L25 14L24 14L24 15L22 15L22 14L23 14L23 13L29 13L29 11L30 11L30 12L31 12L31 11L30 11L30 10L31 10L31 9L30 9L30 10L29 10L29 11L28 11L28 12L26 12L26 11L23 11L23 10L24 10L24 9L25 9L25 10L26 10L26 9L25 9L25 8L24 8L24 9L23 9L23 8L22 8L22 6L21 6L21 7L20 7L20 5L21 5L21 4L20 4L20 3L21 3L21 2L22 2L22 1L21 1L21 2L20 2L20 1ZM23 4L23 5L24 5L24 4ZM17 5L17 6L16 6L16 7L15 7L15 6L14 6L14 8L13 8L13 10L15 10L15 11L16 11L16 10L15 10L15 8L17 8L17 9L18 9L18 8L17 8L17 6L18 6L18 7L19 7L19 6L18 6L18 5ZM26 6L26 7L27 7L27 6ZM5 8L5 9L7 9L7 8ZM19 8L19 9L20 9L20 10L17 10L17 11L18 11L18 12L19 12L19 13L18 13L18 14L19 14L19 13L20 13L20 14L22 14L22 13L20 13L20 12L21 12L21 10L22 10L22 8ZM1 9L1 10L2 10L2 11L3 11L3 10L2 10L2 9ZM27 9L27 10L28 10L28 9ZM11 10L11 11L12 11L12 10ZM19 11L19 12L20 12L20 11ZM22 11L22 12L23 12L23 11ZM8 13L8 14L9 14L9 15L10 15L10 16L11 16L11 15L12 15L12 13L11 13L11 14L10 14L10 13ZM3 15L3 16L4 16L4 15ZM6 15L6 16L5 16L5 17L6 17L6 18L7 18L7 17L6 17L6 16L7 16L7 15ZM13 15L13 16L14 16L14 15ZM28 15L28 18L27 18L27 19L26 19L26 16L23 16L23 17L24 17L24 18L21 18L21 19L22 19L22 20L23 20L23 21L22 21L22 22L23 22L23 21L24 21L24 20L25 20L25 21L26 21L26 20L27 20L27 19L28 19L28 18L29 18L29 15ZM34 17L34 18L33 18L33 19L32 19L32 20L34 20L34 18L35 18L35 17ZM23 19L23 20L24 20L24 19ZM25 19L25 20L26 20L26 19ZM30 19L30 21L27 21L27 23L28 23L28 22L29 22L29 23L30 23L30 22L32 22L32 21L31 21L31 19ZM17 21L17 22L18 22L18 21ZM0 22L0 23L1 23L1 24L2 24L2 22ZM13 23L13 24L14 24L14 23ZM22 23L22 24L21 24L21 25L20 25L20 24L19 24L19 25L20 25L20 26L22 26L22 24L23 24L23 23ZM1 25L1 26L0 26L0 27L4 27L4 26L2 26L2 25ZM6 25L6 26L7 26L7 25ZM23 26L23 27L22 27L22 28L23 28L23 27L24 27L24 26ZM34 26L34 27L35 27L35 26ZM0 28L0 29L2 29L2 28ZM29 29L29 32L32 32L32 29ZM33 29L33 31L34 31L34 29ZM30 30L30 31L31 31L31 30ZM36 30L36 31L37 31L37 30ZM13 31L13 32L14 32L14 31ZM21 32L21 33L22 33L22 32ZM33 32L33 33L32 33L32 34L35 34L35 33L34 33L34 32ZM15 33L15 34L16 34L16 33ZM23 35L23 36L24 36L24 35ZM36 36L36 37L37 37L37 36ZM0 0L0 7L7 7L7 0ZM1 1L1 6L6 6L6 1ZM2 2L2 5L5 5L5 2ZM30 0L30 7L37 7L37 0ZM31 1L31 6L36 6L36 1ZM32 2L32 5L35 5L35 2ZM0 30L0 37L7 37L7 30ZM1 31L1 36L6 36L6 31ZM2 32L2 35L5 35L5 32Z" fill="#ff0000" fill-opacity="0.01"/></g></g></svg>
